<svg width="935" height="312" viewBox="0 0 935 312" fill="none" xmlns="http://www.w3.org/2000/svg">
<g filter="url(#filter0_d_454_1605)">
<rect width="925" height="302" transform="translate(6 5)" fill="white"/>
<path d="M116.596 233.141H848.878" stroke="black" stroke-width="1.22455"/>
<path d="M116.596 240.488V233.141" stroke="black" stroke-width="1.22455"/>
<path d="M116.698 265.067C115.912 265.067 115.242 264.853 114.689 264.425C114.136 263.994 113.713 263.37 113.421 262.552C113.128 261.731 112.982 260.74 112.982 259.578C112.982 258.423 113.128 257.436 113.421 256.619C113.716 255.798 114.141 255.172 114.694 254.74C115.251 254.305 115.918 254.088 116.698 254.088C117.477 254.088 118.143 254.305 118.696 254.74C119.253 255.172 119.677 255.798 119.97 256.619C120.265 257.436 120.413 258.423 120.413 259.578C120.413 260.74 120.267 261.731 119.975 262.552C119.683 263.37 119.26 263.994 118.707 264.425C118.154 264.853 117.484 265.067 116.698 265.067ZM116.698 263.919C117.477 263.919 118.082 263.544 118.514 262.792C118.945 262.041 119.161 260.969 119.161 259.578C119.161 258.652 119.062 257.864 118.863 257.214C118.669 256.563 118.387 256.067 118.018 255.727C117.653 255.386 117.213 255.215 116.698 255.215C115.925 255.215 115.322 255.596 114.887 256.358C114.452 257.116 114.235 258.19 114.235 259.578C114.235 260.503 114.332 261.289 114.527 261.936C114.722 262.583 115.002 263.076 115.367 263.413C115.736 263.751 116.179 263.919 116.698 263.919Z" fill="black"/>
<path d="M189.824 240.488V233.141" stroke="black" stroke-width="1.22455"/>
<path d="M182.608 254.234H183.902V261.874C183.902 262.556 183.777 263.135 183.527 263.611C183.276 264.088 182.923 264.45 182.467 264.697C182.012 264.944 181.474 265.067 180.855 265.067C180.271 265.067 179.75 264.961 179.295 264.749C178.839 264.533 178.481 264.227 178.22 263.831C177.959 263.434 177.828 262.963 177.828 262.416H179.102C179.102 262.719 179.176 262.983 179.326 263.21C179.479 263.432 179.688 263.606 179.952 263.731C180.217 263.857 180.518 263.919 180.855 263.919C181.227 263.919 181.544 263.841 181.805 263.684C182.066 263.528 182.264 263.298 182.4 262.996C182.539 262.689 182.608 262.315 182.608 261.874V254.234ZM188.688 265.109C188.18 265.109 187.719 265.013 187.305 264.822C186.891 264.627 186.562 264.347 186.319 263.982C186.075 263.613 185.953 263.168 185.953 262.646C185.953 262.187 186.044 261.815 186.225 261.529C186.406 261.241 186.647 261.014 186.95 260.851C187.253 260.687 187.587 260.566 187.952 260.486C188.321 260.402 188.691 260.336 189.063 260.287C189.55 260.225 189.945 260.178 190.248 260.146C190.554 260.112 190.777 260.054 190.916 259.974C191.058 259.894 191.13 259.755 191.13 259.557V259.515C191.13 259 190.989 258.6 190.707 258.315C190.429 258.03 190.006 257.887 189.439 257.887C188.851 257.887 188.39 258.016 188.056 258.273C187.722 258.531 187.487 258.805 187.352 259.098L186.183 258.68C186.392 258.193 186.67 257.814 187.018 257.543C187.369 257.268 187.752 257.076 188.166 256.969C188.583 256.857 188.994 256.802 189.397 256.802C189.655 256.802 189.95 256.833 190.284 256.895C190.622 256.955 190.947 257.078 191.26 257.266C191.577 257.454 191.839 257.737 192.048 258.117C192.257 258.496 192.361 259.004 192.361 259.64V264.921H191.13V263.836H191.067C190.984 264.01 190.845 264.196 190.65 264.394C190.455 264.592 190.196 264.761 189.872 264.9C189.549 265.039 189.154 265.109 188.688 265.109ZM188.875 264.003C189.363 264.003 189.773 263.907 190.107 263.716C190.444 263.524 190.698 263.277 190.869 262.975C191.043 262.672 191.13 262.354 191.13 262.02V260.893C191.078 260.955 190.963 261.013 190.785 261.065C190.611 261.114 190.41 261.157 190.18 261.195C189.954 261.23 189.733 261.261 189.517 261.289C189.305 261.314 189.133 261.334 189.001 261.352C188.681 261.394 188.381 261.461 188.103 261.555C187.828 261.646 187.606 261.783 187.435 261.968C187.268 262.149 187.185 262.396 187.185 262.709C187.185 263.136 187.343 263.46 187.66 263.679C187.98 263.895 188.385 264.003 188.875 264.003ZM195.841 260.099V264.921H194.609V256.906H195.799V258.158H195.903C196.091 257.751 196.376 257.424 196.759 257.177C197.142 256.927 197.636 256.802 198.241 256.802C198.784 256.802 199.259 256.913 199.666 257.136C200.073 257.355 200.389 257.689 200.615 258.137C200.841 258.583 200.954 259.146 200.954 259.828V264.921H199.723V259.912C199.723 259.282 199.559 258.791 199.232 258.44C198.905 258.085 198.457 257.908 197.886 257.908C197.493 257.908 197.142 257.993 196.832 258.163C196.526 258.334 196.284 258.583 196.107 258.91C195.929 259.237 195.841 259.633 195.841 260.099Z" fill="black"/>
<path d="M263.053 240.488V233.141" stroke="black" stroke-width="1.22455"/>
<path d="M250.591 264.921V254.234H256.999V255.382H251.885V258.993H256.519V260.141H251.885V264.921H250.591ZM261.82 265.088C261.048 265.088 260.382 264.918 259.822 264.577C259.265 264.232 258.835 263.752 258.533 263.136C258.234 262.517 258.084 261.797 258.084 260.976C258.084 260.155 258.234 259.432 258.533 258.805C258.835 258.176 259.256 257.685 259.796 257.334C260.338 256.979 260.971 256.802 261.695 256.802C262.113 256.802 262.525 256.871 262.932 257.01C263.339 257.149 263.709 257.376 264.043 257.689C264.377 257.998 264.643 258.409 264.842 258.92C265.04 259.432 265.139 260.061 265.139 260.809V261.331H258.961V260.266H263.887C263.887 259.814 263.796 259.411 263.615 259.056C263.438 258.701 263.184 258.421 262.854 258.216C262.527 258.01 262.14 257.908 261.695 257.908C261.205 257.908 260.78 258.03 260.422 258.273C260.067 258.513 259.794 258.826 259.603 259.212C259.411 259.599 259.316 260.013 259.316 260.454V261.164C259.316 261.769 259.42 262.282 259.629 262.703C259.841 263.121 260.135 263.439 260.511 263.658C260.886 263.874 261.323 263.982 261.82 263.982C262.144 263.982 262.436 263.937 262.697 263.846C262.961 263.752 263.189 263.613 263.381 263.429C263.572 263.241 263.72 263.008 263.824 262.729L265.014 263.063C264.889 263.467 264.678 263.822 264.382 264.128C264.087 264.431 263.722 264.667 263.287 264.838C262.852 265.005 262.363 265.088 261.82 265.088ZM267.179 264.921V254.234H268.411V258.179H268.515C268.606 258.04 268.731 257.863 268.891 257.647C269.055 257.428 269.288 257.233 269.59 257.062C269.896 256.889 270.31 256.802 270.832 256.802C271.507 256.802 272.102 256.97 272.617 257.308C273.132 257.645 273.534 258.123 273.822 258.743C274.111 259.362 274.255 260.093 274.255 260.934C274.255 261.783 274.111 262.519 273.822 263.142C273.534 263.761 273.134 264.241 272.622 264.582C272.111 264.919 271.521 265.088 270.853 265.088C270.338 265.088 269.926 265.003 269.616 264.832C269.307 264.658 269.068 264.462 268.902 264.243C268.735 264.02 268.606 263.836 268.515 263.69H268.369V264.921H267.179ZM268.39 260.914C268.39 261.519 268.479 262.053 268.656 262.516C268.834 262.975 269.093 263.335 269.434 263.596C269.775 263.853 270.192 263.982 270.686 263.982C271.201 263.982 271.631 263.846 271.975 263.575C272.323 263.3 272.584 262.931 272.758 262.469C272.935 262.002 273.024 261.484 273.024 260.914C273.024 260.35 272.937 259.842 272.763 259.39C272.593 258.934 272.333 258.574 271.985 258.31C271.641 258.042 271.208 257.908 270.686 257.908C270.185 257.908 269.764 258.035 269.423 258.289C269.082 258.539 268.825 258.891 268.651 259.343C268.477 259.792 268.39 260.315 268.39 260.914Z" fill="black"/>
<path d="M336.281 240.488V233.141" stroke="black" stroke-width="1.22455"/>
<path d="M324.766 254.234H326.311L329.943 263.105H330.068L333.7 254.234H335.244V264.921H334.034V256.802H333.929L330.59 264.921H329.421L326.081 256.802H325.977V264.921H324.766V254.234ZM340.031 265.109C339.523 265.109 339.062 265.013 338.648 264.822C338.234 264.627 337.905 264.347 337.662 263.982C337.418 263.613 337.297 263.168 337.297 262.646C337.297 262.187 337.387 261.815 337.568 261.529C337.749 261.241 337.991 261.014 338.293 260.851C338.596 260.687 338.93 260.566 339.295 260.486C339.664 260.402 340.034 260.336 340.407 260.287C340.894 260.225 341.288 260.178 341.591 260.146C341.897 260.112 342.12 260.054 342.259 259.974C342.402 259.894 342.473 259.755 342.473 259.557V259.515C342.473 259 342.332 258.6 342.05 258.315C341.772 258.03 341.349 257.887 340.782 257.887C340.194 257.887 339.733 258.016 339.399 258.273C339.066 258.531 338.831 258.805 338.695 259.098L337.526 258.68C337.735 258.193 338.013 257.814 338.361 257.543C338.712 257.268 339.095 257.076 339.509 256.969C339.927 256.857 340.337 256.802 340.741 256.802C340.998 256.802 341.294 256.833 341.628 256.895C341.965 256.955 342.29 257.078 342.603 257.266C342.92 257.454 343.183 257.737 343.391 258.117C343.6 258.496 343.705 259.004 343.705 259.64V264.921H342.473V263.836H342.41C342.327 264.01 342.188 264.196 341.993 264.394C341.798 264.592 341.539 264.761 341.215 264.9C340.892 265.039 340.497 265.109 340.031 265.109ZM340.219 264.003C340.706 264.003 341.116 263.907 341.45 263.716C341.788 263.524 342.042 263.277 342.212 262.975C342.386 262.672 342.473 262.354 342.473 262.02V260.893C342.421 260.955 342.306 261.013 342.129 261.065C341.955 261.114 341.753 261.157 341.523 261.195C341.297 261.23 341.076 261.261 340.861 261.289C340.648 261.314 340.476 261.334 340.344 261.352C340.024 261.394 339.725 261.461 339.446 261.555C339.172 261.646 338.949 261.783 338.779 261.968C338.612 262.149 338.528 262.396 338.528 262.709C338.528 263.136 338.686 263.46 339.003 263.679C339.323 263.895 339.728 264.003 340.219 264.003ZM345.952 264.921V256.906H347.142V258.117H347.226C347.372 257.72 347.636 257.398 348.019 257.151C348.401 256.904 348.833 256.781 349.313 256.781C349.403 256.781 349.516 256.782 349.652 256.786C349.788 256.789 349.89 256.795 349.96 256.802V258.054C349.918 258.043 349.823 258.028 349.673 258.007C349.527 257.983 349.372 257.97 349.209 257.97C348.819 257.97 348.471 258.052 348.165 258.216C347.862 258.376 347.622 258.598 347.445 258.884C347.271 259.165 347.184 259.487 347.184 259.849V264.921H345.952Z" fill="black"/>
<path d="M409.509 240.488V233.141" stroke="black" stroke-width="1.22455"/>
<path d="M399.667 264.921H398.31L402.234 254.234H403.57L407.494 264.921H406.137L402.944 255.925H402.86L399.667 264.921ZM400.168 260.747H405.636V261.895H400.168V260.747ZM408.992 267.927V256.906H410.181V258.179H410.328C410.418 258.04 410.543 257.863 410.703 257.647C410.867 257.428 411.1 257.233 411.403 257.062C411.709 256.889 412.123 256.802 412.644 256.802C413.319 256.802 413.914 256.97 414.429 257.308C414.944 257.645 415.346 258.123 415.635 258.743C415.923 259.362 416.068 260.093 416.068 260.934C416.068 261.783 415.923 262.519 415.635 263.142C415.346 263.761 414.946 264.241 414.434 264.582C413.923 264.919 413.333 265.088 412.665 265.088C412.15 265.088 411.738 265.003 411.429 264.832C411.119 264.658 410.881 264.462 410.714 264.243C410.547 264.02 410.418 263.836 410.328 263.69H410.223V267.927H408.992ZM410.202 260.914C410.202 261.519 410.291 262.053 410.468 262.516C410.646 262.975 410.905 263.335 411.246 263.596C411.587 263.853 412.004 263.982 412.498 263.982C413.013 263.982 413.443 263.846 413.787 263.575C414.135 263.3 414.396 262.931 414.57 262.469C414.747 262.002 414.836 261.484 414.836 260.914C414.836 260.35 414.749 259.842 414.575 259.39C414.405 258.934 414.146 258.574 413.798 258.31C413.453 258.042 413.02 257.908 412.498 257.908C411.997 257.908 411.576 258.035 411.236 258.289C410.895 258.539 410.637 258.891 410.463 259.343C410.289 259.792 410.202 260.315 410.202 260.914ZM417.946 264.921V256.906H419.136V258.117H419.219C419.366 257.72 419.63 257.398 420.013 257.151C420.395 256.904 420.827 256.781 421.307 256.781C421.397 256.781 421.51 256.782 421.646 256.786C421.782 256.789 421.884 256.795 421.954 256.802V258.054C421.912 258.043 421.816 258.028 421.667 258.007C421.521 257.983 421.366 257.97 421.202 257.97C420.813 257.97 420.465 258.052 420.159 258.216C419.856 258.376 419.616 258.598 419.439 258.884C419.265 259.165 419.178 259.487 419.178 259.849V264.921H417.946Z" fill="black"/>
<path d="M482.737 240.488V233.141" stroke="black" stroke-width="1.22455"/>
<path d="M468.51 254.234H470.054L473.686 263.105H473.811L477.443 254.234H478.988V264.921H477.777V256.802H477.673L474.333 264.921H473.164L469.825 256.802H469.72V264.921H468.51V254.234ZM483.774 265.109C483.266 265.109 482.805 265.013 482.392 264.822C481.978 264.627 481.649 264.347 481.405 263.982C481.162 263.613 481.04 263.168 481.04 262.646C481.04 262.187 481.13 261.815 481.311 261.529C481.492 261.241 481.734 261.014 482.037 260.851C482.339 260.687 482.673 260.566 483.039 260.486C483.407 260.402 483.778 260.336 484.15 260.287C484.637 260.225 485.032 260.178 485.335 260.146C485.641 260.112 485.863 260.054 486.003 259.974C486.145 259.894 486.216 259.755 486.216 259.557V259.515C486.216 259 486.076 258.6 485.794 258.315C485.516 258.03 485.093 257.887 484.526 257.887C483.938 257.887 483.477 258.016 483.143 258.273C482.809 258.531 482.574 258.805 482.438 259.098L481.27 258.68C481.478 258.193 481.757 257.814 482.105 257.543C482.456 257.268 482.839 257.076 483.253 256.969C483.67 256.857 484.08 256.802 484.484 256.802C484.741 256.802 485.037 256.833 485.371 256.895C485.709 256.955 486.034 257.078 486.347 257.266C486.664 257.454 486.926 257.737 487.135 258.117C487.344 258.496 487.448 259.004 487.448 259.64V264.921H486.216V263.836H486.154C486.07 264.01 485.931 264.196 485.736 264.394C485.542 264.592 485.282 264.761 484.959 264.9C484.635 265.039 484.241 265.109 483.774 265.109ZM483.962 264.003C484.449 264.003 484.86 263.907 485.194 263.716C485.531 263.524 485.785 263.277 485.956 262.975C486.13 262.672 486.216 262.354 486.216 262.02V260.893C486.164 260.955 486.05 261.013 485.872 261.065C485.698 261.114 485.496 261.157 485.267 261.195C485.041 261.23 484.82 261.261 484.604 261.289C484.392 261.314 484.22 261.334 484.087 261.352C483.767 261.394 483.468 261.461 483.19 261.555C482.915 261.646 482.692 261.783 482.522 261.968C482.355 262.149 482.271 262.396 482.271 262.709C482.271 263.136 482.43 263.46 482.746 263.679C483.066 263.895 483.472 264.003 483.962 264.003ZM490.202 267.927C489.993 267.927 489.807 267.909 489.644 267.875C489.48 267.843 489.367 267.812 489.304 267.781L489.617 266.695C489.917 266.772 490.181 266.8 490.411 266.779C490.64 266.758 490.844 266.655 491.021 266.471C491.202 266.29 491.367 265.996 491.517 265.589L491.747 264.963L488.783 256.906H490.118L492.331 263.293H492.414L494.627 256.906H495.963L492.561 266.09C492.408 266.504 492.218 266.847 491.992 267.118C491.766 267.393 491.503 267.596 491.204 267.729C490.908 267.861 490.574 267.927 490.202 267.927Z" fill="black"/>
<path d="M555.965 240.488V233.141" stroke="black" stroke-width="1.22455"/>
<path d="M548.896 254.234H550.19V261.874C550.19 262.556 550.065 263.135 549.814 263.611C549.564 264.088 549.211 264.45 548.755 264.697C548.299 264.944 547.762 265.067 547.142 265.067C546.558 265.067 546.038 264.961 545.582 264.749C545.126 264.533 544.768 264.227 544.507 263.831C544.246 263.434 544.116 262.963 544.116 262.416H545.389C545.389 262.719 545.464 262.983 545.613 263.21C545.766 263.432 545.975 263.606 546.24 263.731C546.504 263.857 546.805 263.919 547.142 263.919C547.515 263.919 547.831 263.841 548.092 263.684C548.353 263.528 548.551 263.298 548.687 262.996C548.826 262.689 548.896 262.315 548.896 261.874V254.234ZM557.668 261.644V256.906H558.899V264.921H557.668V263.564H557.584C557.396 263.971 557.104 264.318 556.707 264.603C556.311 264.885 555.81 265.026 555.205 265.026C554.704 265.026 554.258 264.916 553.869 264.697C553.479 264.474 553.173 264.14 552.95 263.695C552.728 263.246 552.616 262.681 552.616 261.999V256.906H553.848V261.915C553.848 262.5 554.011 262.966 554.338 263.314C554.669 263.662 555.09 263.836 555.601 263.836C555.907 263.836 556.219 263.757 556.535 263.601C556.855 263.444 557.123 263.204 557.339 262.881C557.558 262.557 557.668 262.145 557.668 261.644ZM562.386 260.099V264.921H561.155V256.906H562.344V258.158H562.449C562.637 257.751 562.922 257.424 563.305 257.177C563.687 256.927 564.181 256.802 564.787 256.802C565.329 256.802 565.804 256.913 566.211 257.136C566.618 257.355 566.935 257.689 567.161 258.137C567.387 258.583 567.5 259.146 567.5 259.828V264.921H566.269V259.912C566.269 259.282 566.105 258.791 565.778 258.44C565.451 258.085 565.002 257.908 564.432 257.908C564.039 257.908 563.687 257.993 563.378 258.163C563.072 258.334 562.83 258.583 562.652 258.91C562.475 259.237 562.386 259.633 562.386 260.099Z" fill="black"/>
<path d="M629.193 240.488V233.141" stroke="black" stroke-width="1.22455"/>
<path d="M624.79 254.234H626.085V261.874C626.085 262.556 625.959 263.135 625.709 263.611C625.458 264.088 625.105 264.45 624.649 264.697C624.194 264.944 623.656 265.067 623.037 265.067C622.453 265.067 621.933 264.961 621.477 264.749C621.021 264.533 620.663 264.227 620.402 263.831C620.141 263.434 620.01 262.963 620.01 262.416H621.284C621.284 262.719 621.358 262.983 621.508 263.21C621.661 263.432 621.87 263.606 622.134 263.731C622.399 263.857 622.7 263.919 623.037 263.919C623.409 263.919 623.726 263.841 623.987 263.684C624.248 263.528 624.446 263.298 624.582 262.996C624.721 262.689 624.79 262.315 624.79 261.874V254.234ZM633.562 261.644V256.906H634.794V264.921H633.562V263.564H633.479C633.291 263.971 632.999 264.318 632.602 264.603C632.206 264.885 631.705 265.026 631.099 265.026C630.598 265.026 630.153 264.916 629.763 264.697C629.374 264.474 629.068 264.14 628.845 263.695C628.622 263.246 628.511 262.681 628.511 261.999V256.906H629.742V261.915C629.742 262.5 629.906 262.966 630.233 263.314C630.564 263.662 630.984 263.836 631.496 263.836C631.802 263.836 632.113 263.757 632.43 263.601C632.75 263.444 633.018 263.204 633.234 262.881C633.453 262.557 633.562 262.145 633.562 261.644ZM638.281 254.234V264.921H637.049V254.234H638.281Z" fill="black"/>
<path d="M702.421 240.488V233.141" stroke="black" stroke-width="1.22455"/>
<path d="M690.544 264.921H689.187L693.111 254.234H694.447L698.371 264.921H697.014L693.821 255.925H693.737L690.544 264.921ZM691.045 260.747H696.513V261.895H691.045V260.747ZM704.92 261.644V256.906H706.152V264.921H704.92V263.564H704.837C704.649 263.971 704.357 264.318 703.96 264.603C703.563 264.885 703.062 265.026 702.457 265.026C701.956 265.026 701.511 264.916 701.121 264.697C700.732 264.474 700.425 264.14 700.203 263.695C699.98 263.246 699.869 262.681 699.869 261.999V256.906H701.1V261.915C701.1 262.5 701.264 262.966 701.591 263.314C701.921 263.662 702.342 263.836 702.854 263.836C703.16 263.836 703.471 263.757 703.788 263.601C704.108 263.444 704.376 263.204 704.591 262.881C704.811 262.557 704.92 262.145 704.92 261.644ZM711.643 268.094C711.048 268.094 710.536 268.017 710.108 267.864C709.68 267.715 709.324 267.516 709.039 267.269C708.757 267.026 708.532 266.765 708.365 266.487L709.346 265.798C709.458 265.944 709.599 266.111 709.769 266.299C709.94 266.49 710.173 266.655 710.468 266.794C710.768 266.937 711.159 267.008 711.643 267.008C712.29 267.008 712.824 266.852 713.245 266.539C713.665 266.226 713.876 265.735 713.876 265.067V263.439H713.772C713.681 263.585 713.552 263.766 713.385 263.982C713.222 264.194 712.985 264.384 712.676 264.551C712.37 264.714 711.956 264.796 711.434 264.796C710.787 264.796 710.206 264.643 709.691 264.337C709.179 264.031 708.774 263.585 708.475 263.001C708.179 262.416 708.031 261.707 708.031 260.872C708.031 260.051 708.176 259.336 708.465 258.727C708.753 258.115 709.155 257.642 709.67 257.308C710.185 256.97 710.78 256.802 711.455 256.802C711.976 256.802 712.39 256.889 712.697 257.062C713.006 257.233 713.243 257.428 713.406 257.647C713.573 257.863 713.702 258.04 713.792 258.179H713.918V256.906H715.107V265.151C715.107 265.84 714.951 266.4 714.638 266.831C714.328 267.266 713.911 267.584 713.385 267.786C712.864 267.991 712.283 268.094 711.643 268.094ZM711.601 263.69C712.095 263.69 712.512 263.577 712.853 263.35C713.194 263.124 713.453 262.799 713.631 262.375C713.808 261.95 713.897 261.442 713.897 260.851C713.897 260.273 713.81 259.764 713.636 259.322C713.462 258.88 713.205 258.534 712.864 258.284C712.523 258.033 712.102 257.908 711.601 257.908C711.079 257.908 710.644 258.04 710.296 258.304C709.952 258.569 709.693 258.924 709.519 259.369C709.348 259.814 709.263 260.308 709.263 260.851C709.263 261.408 709.35 261.9 709.524 262.328C709.701 262.752 709.962 263.086 710.307 263.33C710.655 263.57 711.086 263.69 711.601 263.69Z" fill="black"/>
<path d="M775.649 240.488V233.141" stroke="black" stroke-width="1.22455"/>
<path d="M769.951 256.906C769.888 256.377 769.634 255.967 769.189 255.674C768.743 255.382 768.197 255.236 767.55 255.236C767.077 255.236 766.663 255.313 766.308 255.466C765.957 255.619 765.682 255.829 765.484 256.097C765.289 256.365 765.192 256.669 765.192 257.01C765.192 257.296 765.259 257.541 765.395 257.746C765.534 257.948 765.712 258.117 765.927 258.252C766.143 258.384 766.369 258.494 766.606 258.581C766.842 258.664 767.06 258.732 767.258 258.784L768.343 259.077C768.622 259.15 768.931 259.251 769.272 259.379C769.617 259.508 769.945 259.684 770.258 259.906C770.575 260.126 770.836 260.407 771.041 260.752C771.246 261.096 771.349 261.519 771.349 262.02C771.349 262.597 771.198 263.119 770.895 263.585C770.596 264.051 770.158 264.422 769.58 264.697C769.006 264.972 768.309 265.109 767.488 265.109C766.722 265.109 766.06 264.986 765.499 264.739C764.943 264.492 764.504 264.147 764.184 263.705C763.868 263.263 763.689 262.75 763.647 262.166H764.983C765.018 262.569 765.153 262.903 765.39 263.168C765.63 263.429 765.933 263.624 766.298 263.752C766.667 263.877 767.063 263.94 767.488 263.94C767.982 263.94 768.425 263.86 768.818 263.7C769.211 263.537 769.523 263.31 769.752 263.022C769.982 262.729 770.097 262.389 770.097 261.999C770.097 261.644 769.998 261.355 769.799 261.133C769.601 260.91 769.34 260.729 769.017 260.59C768.693 260.451 768.343 260.329 767.968 260.225L766.653 259.849C765.818 259.609 765.157 259.266 764.67 258.821C764.183 258.376 763.939 257.793 763.939 257.073C763.939 256.475 764.101 255.953 764.424 255.507C764.751 255.059 765.19 254.711 765.739 254.464C766.293 254.213 766.91 254.088 767.592 254.088C768.281 254.088 768.893 254.212 769.429 254.459C769.964 254.702 770.389 255.036 770.702 255.46C771.019 255.885 771.186 256.367 771.203 256.906H769.951ZM776.67 265.088C775.898 265.088 775.232 264.918 774.672 264.577C774.115 264.232 773.686 263.752 773.383 263.136C773.084 262.517 772.934 261.797 772.934 260.976C772.934 260.155 773.084 259.432 773.383 258.805C773.686 258.176 774.106 257.685 774.646 257.334C775.188 256.979 775.822 256.802 776.545 256.802C776.963 256.802 777.375 256.871 777.782 257.01C778.189 257.149 778.559 257.376 778.893 257.689C779.227 257.998 779.493 258.409 779.692 258.92C779.89 259.432 779.989 260.061 779.989 260.809V261.331H773.811V260.266H778.737C778.737 259.814 778.646 259.411 778.465 259.056C778.288 258.701 778.034 258.421 777.704 258.216C777.377 258.01 776.99 257.908 776.545 257.908C776.055 257.908 775.63 258.03 775.272 258.273C774.917 258.513 774.644 258.826 774.453 259.212C774.261 259.599 774.166 260.013 774.166 260.454V261.164C774.166 261.769 774.27 262.282 774.479 262.703C774.691 263.121 774.985 263.439 775.361 263.658C775.736 263.874 776.173 263.982 776.67 263.982C776.994 263.982 777.286 263.937 777.547 263.846C777.811 263.752 778.039 263.613 778.231 263.429C778.422 263.241 778.57 263.008 778.674 262.729L779.864 263.063C779.739 263.467 779.528 263.822 779.233 264.128C778.937 264.431 778.572 264.667 778.137 264.838C777.702 265.005 777.213 265.088 776.67 265.088ZM781.863 267.927V256.906H783.052V258.179H783.198C783.289 258.04 783.414 257.863 783.574 257.647C783.738 257.428 783.971 257.233 784.273 257.062C784.58 256.889 784.994 256.802 785.515 256.802C786.19 256.802 786.785 256.97 787.3 257.308C787.815 257.645 788.217 258.123 788.505 258.743C788.794 259.362 788.939 260.093 788.939 260.934C788.939 261.783 788.794 262.519 788.505 263.142C788.217 263.761 787.817 264.241 787.305 264.582C786.794 264.919 786.204 265.088 785.536 265.088C785.021 265.088 784.609 265.003 784.299 264.832C783.99 264.658 783.752 264.462 783.585 264.243C783.418 264.02 783.289 263.836 783.198 263.69H783.094V267.927H781.863ZM783.073 260.914C783.073 261.519 783.162 262.053 783.339 262.516C783.517 262.975 783.776 263.335 784.117 263.596C784.458 263.853 784.875 263.982 785.369 263.982C785.884 263.982 786.314 263.846 786.658 263.575C787.006 263.3 787.267 262.931 787.441 262.469C787.618 262.002 787.707 261.484 787.707 260.914C787.707 260.35 787.62 259.842 787.446 259.39C787.276 258.934 787.016 258.574 786.669 258.31C786.324 258.042 785.891 257.908 785.369 257.908C784.868 257.908 784.447 258.035 784.106 258.289C783.765 258.539 783.508 258.891 783.334 259.343C783.16 259.792 783.073 260.315 783.073 260.914Z" fill="black"/>
<path d="M848.877 240.488V233.141" stroke="black" stroke-width="1.22455"/>
<path d="M838.073 259.578C838.073 260.705 837.87 261.679 837.463 262.5C837.056 263.321 836.497 263.954 835.788 264.399C835.078 264.845 834.267 265.067 833.356 265.067C832.444 265.067 831.634 264.845 830.924 264.399C830.215 263.954 829.656 263.321 829.249 262.5C828.842 261.679 828.639 260.705 828.639 259.578C828.639 258.451 828.842 257.476 829.249 256.655C829.656 255.834 830.215 255.201 830.924 254.756C831.634 254.311 832.444 254.088 833.356 254.088C834.267 254.088 835.078 254.311 835.788 254.756C836.497 255.201 837.056 255.834 837.463 256.655C837.87 257.476 838.073 258.451 838.073 259.578ZM836.821 259.578C836.821 258.652 836.666 257.871 836.356 257.235C836.05 256.598 835.635 256.116 835.109 255.789C834.587 255.462 834.003 255.299 833.356 255.299C832.709 255.299 832.123 255.462 831.597 255.789C831.076 256.116 830.66 256.598 830.35 257.235C830.044 257.871 829.891 258.652 829.891 259.578C829.891 260.503 830.044 261.284 830.35 261.921C830.66 262.557 831.076 263.039 831.597 263.366C832.123 263.693 832.709 263.857 833.356 263.857C834.003 263.857 834.587 263.693 835.109 263.366C835.635 263.039 836.05 262.557 836.356 261.921C836.666 261.284 836.821 260.503 836.821 259.578ZM843.338 265.088C842.587 265.088 841.94 264.911 841.397 264.556C840.855 264.201 840.437 263.712 840.145 263.09C839.853 262.467 839.707 261.755 839.707 260.955C839.707 260.141 839.856 259.423 840.155 258.8C840.458 258.174 840.879 257.685 841.418 257.334C841.961 256.979 842.594 256.802 843.318 256.802C843.881 256.802 844.389 256.906 844.841 257.115C845.294 257.323 845.664 257.616 845.953 257.991C846.242 258.367 846.421 258.805 846.49 259.306H845.259C845.165 258.941 844.956 258.617 844.633 258.336C844.313 258.05 843.881 257.908 843.338 257.908C842.858 257.908 842.437 258.033 842.076 258.284C841.717 258.531 841.437 258.88 841.235 259.332C841.037 259.781 840.938 260.308 840.938 260.914C840.938 261.533 841.035 262.072 841.23 262.531C841.429 262.99 841.707 263.347 842.065 263.601C842.427 263.855 842.851 263.982 843.338 263.982C843.659 263.982 843.949 263.926 844.21 263.815C844.471 263.704 844.692 263.544 844.873 263.335C845.054 263.126 845.182 262.876 845.259 262.583H846.49C846.421 263.056 846.249 263.483 845.974 263.862C845.702 264.238 845.342 264.537 844.893 264.759C844.448 264.979 843.93 265.088 843.338 265.088ZM851.776 256.906V257.95H847.623V256.906H851.776ZM848.833 254.986H850.065V262.625C850.065 262.973 850.115 263.234 850.216 263.408C850.32 263.578 850.453 263.693 850.613 263.752C850.776 263.808 850.948 263.836 851.129 263.836C851.265 263.836 851.376 263.829 851.463 263.815C851.55 263.797 851.62 263.784 851.672 263.773L851.922 264.879C851.839 264.911 851.722 264.942 851.573 264.973C851.423 265.008 851.234 265.026 851.004 265.026C850.656 265.026 850.315 264.951 849.981 264.801C849.651 264.652 849.376 264.424 849.157 264.118C848.941 263.811 848.833 263.425 848.833 262.959V254.986Z" fill="black"/>
<path d="M116.596 37.2124V233.141" stroke="black" stroke-width="1.22455"/>
<path d="M109.248 233.141H116.595" stroke="black" stroke-width="1.22455"/>
<path d="M98.737 237.809C97.9508 237.809 97.2811 237.595 96.728 237.167C96.1749 236.735 95.7522 236.111 95.46 235.294C95.1677 234.473 95.0216 233.481 95.0216 232.319C95.0216 231.164 95.1677 230.178 95.46 229.36C95.7557 228.539 96.1801 227.913 96.7332 227.482C97.2898 227.047 97.9578 226.829 98.737 226.829C99.5163 226.829 100.182 227.047 100.736 227.482C101.292 227.913 101.717 228.539 102.009 229.36C102.305 230.178 102.452 231.164 102.452 232.319C102.452 233.481 102.306 234.473 102.014 235.294C101.722 236.111 101.299 236.735 100.746 237.167C100.193 237.595 99.5233 237.809 98.737 237.809ZM98.737 236.661C99.5163 236.661 100.122 236.285 100.553 235.534C100.984 234.782 101.2 233.711 101.2 232.319C101.2 231.394 101.101 230.606 100.903 229.955C100.708 229.305 100.426 228.809 100.057 228.468C99.692 228.127 99.2519 227.957 98.737 227.957C97.9647 227.957 97.3612 228.338 96.9263 229.099C96.4914 229.858 96.274 230.931 96.274 232.319C96.274 233.244 96.3714 234.031 96.5662 234.678C96.7611 235.325 97.0411 235.817 97.4064 236.155C97.7751 236.492 98.2187 236.661 98.737 236.661Z" fill="black"/>
<path d="M109.248 184.159H116.595" stroke="black" stroke-width="1.22455"/>
<path d="M77.0458 188.681V187.741L80.5733 183.88C80.9873 183.428 81.3282 183.035 81.5961 182.701C81.864 182.363 82.0623 182.047 82.191 181.751C82.3232 181.452 82.3893 181.139 82.3893 180.812C82.3893 180.436 82.2988 180.111 82.1179 179.836C81.9405 179.561 81.697 179.349 81.3874 179.199C81.0777 179.05 80.7299 178.975 80.3437 178.975C79.9332 178.975 79.5749 179.06 79.2687 179.23C78.9661 179.397 78.7313 179.632 78.5643 179.935C78.4008 180.238 78.319 180.592 78.319 180.999H77.0875C77.0875 180.373 77.2319 179.824 77.5206 179.35C77.8094 178.877 78.2025 178.509 78.7 178.244C79.2009 177.98 79.7627 177.848 80.3855 177.848C81.0116 177.848 81.5665 177.98 82.0501 178.244C82.5336 178.509 82.9128 178.865 83.1877 179.314C83.4625 179.763 83.5999 180.262 83.5999 180.812C83.5999 181.205 83.5286 181.589 83.386 181.965C83.2468 182.337 83.0033 182.753 82.6554 183.212C82.311 183.668 81.8327 184.224 81.2204 184.882L78.82 187.449V187.533H83.7878V188.681H77.0458ZM89.2826 188.827C88.6703 188.827 88.1189 188.705 87.6284 188.461C87.1379 188.218 86.7448 187.884 86.4491 187.46C86.1534 187.035 85.9916 186.552 85.9638 186.009H87.2162C87.2649 186.492 87.484 186.893 87.8737 187.209C88.2668 187.522 88.7364 187.679 89.2826 187.679C89.7209 187.679 90.1105 187.576 90.4515 187.371C90.7959 187.166 91.0655 186.884 91.2603 186.526C91.4586 186.164 91.5577 185.755 91.5577 185.299C91.5577 184.833 91.4551 184.417 91.2499 184.052C91.0481 183.683 90.7698 183.393 90.4149 183.181C90.0601 182.968 89.6548 182.861 89.1991 182.857C88.8721 182.854 88.5364 182.904 88.192 183.008C87.8476 183.109 87.564 183.24 87.3414 183.4L86.1308 183.254L86.7778 177.994H92.33V179.142H87.8632L87.4875 182.294H87.5501C87.7693 182.12 88.0441 181.975 88.3746 181.86C88.7051 181.746 89.0495 181.688 89.4078 181.688C90.0618 181.688 90.6445 181.845 91.1559 182.158C91.6708 182.467 92.0743 182.892 92.3666 183.431C92.6623 183.97 92.8101 184.586 92.8101 185.278C92.8101 185.96 92.6571 186.569 92.3509 187.105C92.0483 187.637 91.6308 188.058 91.0985 188.368C90.5663 188.674 89.961 188.827 89.2826 188.827ZM98.3689 188.827C97.5827 188.827 96.913 188.613 96.3598 188.185C95.8067 187.754 95.384 187.129 95.0918 186.312C94.7996 185.491 94.6535 184.499 94.6535 183.337C94.6535 182.182 94.7996 181.196 95.0918 180.378C95.3875 179.557 95.8119 178.931 96.3651 178.5C96.9217 178.065 97.5896 177.848 98.3689 177.848C99.1481 177.848 99.8143 178.065 100.367 178.5C100.924 178.931 101.348 179.557 101.641 180.378C101.936 181.196 102.084 182.182 102.084 183.337C102.084 184.499 101.938 185.491 101.646 186.312C101.354 187.129 100.931 187.754 100.378 188.185C99.8248 188.613 99.1551 188.827 98.3689 188.827ZM98.3689 187.679C99.1481 187.679 99.7534 187.303 100.185 186.552C100.616 185.8 100.832 184.729 100.832 183.337C100.832 182.412 100.733 181.624 100.534 180.973C100.34 180.323 100.058 179.827 99.6891 179.486C99.3238 179.145 98.8837 178.975 98.3689 178.975C97.5966 178.975 96.993 179.356 96.5581 180.118C96.1233 180.876 95.9059 181.949 95.9059 183.337C95.9059 184.263 96.0033 185.049 96.1981 185.696C96.3929 186.343 96.6729 186.835 97.0382 187.173C97.407 187.51 97.8505 187.679 98.3689 187.679Z" fill="black"/>
<path d="M109.248 135.177H116.595" stroke="black" stroke-width="1.22455"/>
<path d="M80.0984 139.845C79.4862 139.845 78.9348 139.723 78.4443 139.479C77.9537 139.236 77.5606 138.902 77.2649 138.477C76.9692 138.053 76.8075 137.569 76.7796 137.027H78.032C78.0807 137.51 78.2999 137.91 78.6895 138.227C79.0826 138.54 79.5523 138.697 80.0984 138.697C80.5368 138.697 80.9264 138.594 81.2673 138.389C81.6117 138.183 81.8814 137.902 82.0762 137.543C82.2745 137.182 82.3736 136.773 82.3736 136.317C82.3736 135.851 82.271 135.435 82.0657 135.07C81.864 134.701 81.5857 134.411 81.2308 134.198C80.876 133.986 80.4707 133.878 80.015 133.875C79.6879 133.871 79.3522 133.922 79.0078 134.026C78.6634 134.127 78.3799 134.258 78.1573 134.418L76.9466 134.271L77.5937 129.011H83.1459V130.16H78.6791L78.3034 133.311H78.366C78.5852 133.137 78.86 132.993 79.1905 132.878C79.521 132.763 79.8654 132.706 80.2237 132.706C80.8777 132.706 81.4604 132.863 81.9718 133.176C82.4867 133.485 82.8902 133.91 83.1824 134.449C83.4781 134.988 83.626 135.604 83.626 136.296C83.626 136.978 83.4729 137.587 83.1668 138.123C82.8641 138.655 82.4467 139.076 81.9144 139.385C81.3821 139.692 80.7768 139.845 80.0984 139.845ZM89.1847 139.845C88.3985 139.845 87.7288 139.631 87.1757 139.203C86.6226 138.771 86.1999 138.147 85.9077 137.329C85.6154 136.508 85.4693 135.517 85.4693 134.355C85.4693 133.2 85.6154 132.214 85.9077 131.396C86.2034 130.575 86.6278 129.949 87.1809 129.518C87.7375 129.083 88.4055 128.865 89.1847 128.865C89.964 128.865 90.6302 129.083 91.1833 129.518C91.7399 129.949 92.1644 130.575 92.4566 131.396C92.7523 132.214 92.9001 133.2 92.9001 134.355C92.9001 135.517 92.754 136.508 92.4618 137.329C92.1696 138.147 91.7469 138.771 91.1938 139.203C90.6406 139.631 89.971 139.845 89.1847 139.845ZM89.1847 138.697C89.964 138.697 90.5693 138.321 91.0007 137.569C91.4321 136.818 91.6478 135.747 91.6478 134.355C91.6478 133.43 91.5486 132.642 91.3503 131.991C91.1555 131.341 90.8737 130.845 90.505 130.504C90.1397 130.163 89.6996 129.993 89.1847 129.993C88.4124 129.993 87.8089 130.373 87.374 131.135C86.9391 131.894 86.7217 132.967 86.7217 134.355C86.7217 135.28 86.8191 136.067 87.0139 136.714C87.2088 137.361 87.4888 137.853 87.8541 138.19C88.2228 138.528 88.6664 138.697 89.1847 138.697ZM98.3689 139.845C97.5827 139.845 96.913 139.631 96.3598 139.203C95.8067 138.771 95.384 138.147 95.0918 137.329C94.7996 136.508 94.6535 135.517 94.6535 134.355C94.6535 133.2 94.7996 132.214 95.0918 131.396C95.3875 130.575 95.8119 129.949 96.3651 129.518C96.9217 129.083 97.5896 128.865 98.3689 128.865C99.1481 128.865 99.8143 129.083 100.367 129.518C100.924 129.949 101.348 130.575 101.641 131.396C101.936 132.214 102.084 133.2 102.084 134.355C102.084 135.517 101.938 136.508 101.646 137.329C101.354 138.147 100.931 138.771 100.378 139.203C99.8248 139.631 99.1551 139.845 98.3689 139.845ZM98.3689 138.697C99.1481 138.697 99.7534 138.321 100.185 137.569C100.616 136.818 100.832 135.747 100.832 134.355C100.832 133.43 100.733 132.642 100.534 131.991C100.34 131.341 100.058 130.845 99.6891 130.504C99.3238 130.163 98.8837 129.993 98.3689 129.993C97.5966 129.993 96.993 130.373 96.5581 131.135C96.1233 131.894 95.9059 132.967 95.9059 134.355C95.9059 135.28 96.0033 136.067 96.1981 136.714C96.3929 137.361 96.6729 137.853 97.0382 138.19C97.407 138.528 97.8505 138.697 98.3689 138.697Z" fill="black"/>
<path d="M109.249 86.1946H116.596" stroke="black" stroke-width="1.22455"/>
<path d="M78.2501 90.7166L83.03 81.2611V81.1776H77.5196V80.0296H84.3659V81.2402L79.6069 90.7166H78.2501ZM89.5072 90.8627C88.8949 90.8627 88.3435 90.7409 87.853 90.4974C87.3625 90.2539 86.9694 89.9199 86.6737 89.4955C86.378 89.0711 86.2162 88.5875 86.1884 88.0448H87.4408C87.4895 88.5284 87.7086 88.9284 88.0983 89.245C88.4914 89.5581 88.961 89.7146 89.5072 89.7146C89.9455 89.7146 90.3352 89.612 90.6761 89.4068C91.0205 89.2015 91.2901 88.9197 91.4849 88.5614C91.6832 88.1996 91.7824 87.7908 91.7824 87.3351C91.7824 86.869 91.6797 86.4532 91.4745 86.088C91.2727 85.7192 90.9944 85.4287 90.6396 85.2165C90.2847 85.0043 89.8794 84.8965 89.4237 84.893C89.0967 84.8895 88.761 84.9399 88.4166 85.0443C88.0722 85.1452 87.7886 85.2756 87.566 85.4357L86.3554 85.2896L87.0024 80.0296H92.5547V81.1776H88.0878L87.7121 84.3294H87.7747C87.9939 84.1555 88.2687 84.0111 88.5992 83.8963C88.9297 83.7815 89.2741 83.7241 89.6324 83.7241C90.2865 83.7241 90.8692 83.8806 91.3805 84.1937C91.8954 84.5033 92.299 84.9278 92.5912 85.467C92.8869 86.0062 93.0347 86.622 93.0347 87.3142C93.0347 87.9961 92.8817 88.6049 92.5755 89.1406C92.2729 89.6729 91.8554 90.0938 91.3231 90.4035C90.7909 90.7096 90.1856 90.8627 89.5072 90.8627ZM98.5935 90.8627C97.8073 90.8627 97.1376 90.6487 96.5845 90.2208C96.0313 89.7894 95.6086 89.165 95.3164 88.3475C95.0242 87.5265 94.8781 86.535 94.8781 85.3731C94.8781 84.2181 95.0242 83.2318 95.3164 82.4143C95.6121 81.5933 96.0365 80.9671 96.5897 80.5357C97.1463 80.1009 97.8142 79.8835 98.5935 79.8835C99.3727 79.8835 100.039 80.1009 100.592 80.5357C101.149 80.9671 101.573 81.5933 101.865 82.4143C102.161 83.2318 102.309 84.2181 102.309 85.3731C102.309 86.535 102.163 87.5265 101.871 88.3475C101.578 89.165 101.156 89.7894 100.603 90.2208C100.049 90.6487 99.3797 90.8627 98.5935 90.8627ZM98.5935 89.7146C99.3727 89.7146 99.9781 89.3389 100.409 88.5875C100.841 87.8361 101.056 86.7646 101.056 85.3731C101.056 84.4477 100.957 83.6597 100.759 83.0092C100.564 82.3586 100.282 81.8629 99.9137 81.522C99.5484 81.1811 99.1083 81.0106 98.5935 81.0106C97.8212 81.0106 97.2176 81.3915 96.7827 82.1534C96.3479 82.9118 96.1305 83.985 96.1305 85.3731C96.1305 86.2984 96.2279 87.0846 96.4227 87.7317C96.6175 88.3788 96.8975 88.871 97.2628 89.2085C97.6316 89.5459 98.0751 89.7146 98.5935 89.7146Z" fill="black"/>
<path d="M109.249 37.2124H116.596" stroke="black" stroke-width="1.22455"/>
<path d="M73.0941 36.1848V46.8718H71.8V37.5416H71.7373L69.1282 39.274V37.959L71.8 36.1848H73.0941ZM79.6534 47.0179C78.8672 47.0179 78.1975 46.804 77.6444 46.3761C77.0913 45.9447 76.6686 45.3203 76.3764 44.5027C76.0842 43.6817 75.938 42.6903 75.938 41.5283C75.938 40.3734 76.0842 39.3871 76.3764 38.5696C76.6721 37.7486 77.0965 37.1224 77.6496 36.691C78.2062 36.2562 78.8742 36.0387 79.6534 36.0387C80.4327 36.0387 81.0989 36.2562 81.652 36.691C82.2086 37.1224 82.6331 37.7486 82.9253 38.5696C83.221 39.3871 83.3688 40.3734 83.3688 41.5283C83.3688 42.6903 83.2227 43.6817 82.9305 44.5027C82.6383 45.3203 82.2156 45.9447 81.6625 46.3761C81.1093 46.804 80.4397 47.0179 79.6534 47.0179ZM79.6534 45.8699C80.4327 45.8699 81.038 45.4942 81.4694 44.7428C81.9008 43.9913 82.1165 42.9199 82.1165 41.5283C82.1165 40.603 82.0173 39.815 81.819 39.1645C81.6242 38.5139 81.3424 38.0182 80.9737 37.6773C80.6084 37.3363 80.1683 37.1659 79.6534 37.1659C78.8811 37.1659 78.2776 37.5468 77.8427 38.3087C77.4078 39.0671 77.1904 40.1403 77.1904 41.5283C77.1904 42.4537 77.2878 43.2399 77.4826 43.887C77.6775 44.534 77.9575 45.0263 78.3228 45.3637C78.6915 45.7012 79.1351 45.8699 79.6534 45.8699ZM88.8376 47.0179C88.0514 47.0179 87.3817 46.804 86.8285 46.3761C86.2754 45.9447 85.8527 45.3203 85.5605 44.5027C85.2683 43.6817 85.1222 42.6903 85.1222 41.5283C85.1222 40.3734 85.2683 39.3871 85.5605 38.5696C85.8562 37.7486 86.2806 37.1224 86.8338 36.691C87.3904 36.2562 88.0583 36.0387 88.8376 36.0387C89.6168 36.0387 90.283 36.2562 90.8362 36.691C91.3928 37.1224 91.8172 37.7486 92.1094 38.5696C92.4051 39.3871 92.553 40.3734 92.553 41.5283C92.553 42.6903 92.4069 43.6817 92.1146 44.5027C91.8224 45.3203 91.3997 45.9447 90.8466 46.3761C90.2935 46.804 89.6238 47.0179 88.8376 47.0179ZM88.8376 45.8699C89.6168 45.8699 90.2222 45.4942 90.6535 44.7428C91.0849 43.9913 91.3006 42.9199 91.3006 41.5283C91.3006 40.603 91.2014 39.815 91.0031 39.1645C90.8083 38.5139 90.5265 38.0182 90.1578 37.6773C89.7925 37.3363 89.3524 37.1659 88.8376 37.1659C88.0653 37.1659 87.4617 37.5468 87.0268 38.3087C86.592 39.0671 86.3746 40.1403 86.3746 41.5283C86.3746 42.4537 86.472 43.2399 86.6668 43.887C86.8616 44.534 87.1416 45.0263 87.5069 45.3637C87.8757 45.7012 88.3192 45.8699 88.8376 45.8699ZM98.0217 47.0179C97.2355 47.0179 96.5658 46.804 96.0127 46.3761C95.4595 45.9447 95.0369 45.3203 94.7446 44.5027C94.4524 43.6817 94.3063 42.6903 94.3063 41.5283C94.3063 40.3734 94.4524 39.3871 94.7446 38.5696C95.0403 37.7486 95.4648 37.1224 96.0179 36.691C96.5745 36.2562 97.2424 36.0387 98.0217 36.0387C98.801 36.0387 99.4672 36.2562 100.02 36.691C100.577 37.1224 101.001 37.7486 101.294 38.5696C101.589 39.3871 101.737 40.3734 101.737 41.5283C101.737 42.6903 101.591 43.6817 101.299 44.5027C101.007 45.3203 100.584 45.9447 100.031 46.3761C99.4776 46.804 98.8079 47.0179 98.0217 47.0179ZM98.0217 45.8699C98.801 45.8699 99.4063 45.4942 99.8377 44.7428C100.269 43.9913 100.485 42.9199 100.485 41.5283C100.485 40.603 100.386 39.815 100.187 39.1645C99.9925 38.5139 99.7107 38.0182 99.3419 37.6773C98.9766 37.3363 98.5366 37.1659 98.0217 37.1659C97.2494 37.1659 96.6458 37.5468 96.211 38.3087C95.7761 39.0671 95.5587 40.1403 95.5587 41.5283C95.5587 42.4537 95.6561 43.2399 95.8509 43.887C96.0457 44.534 96.3258 45.0263 96.691 45.3637C97.0598 45.7012 97.5034 45.8699 98.0217 45.8699Z" fill="black"/>
<path d="M116.596 233.141H848.877" stroke="#CCCCCC" stroke-width="1.22455"/>
<path d="M116.596 184.159H848.877" stroke="#CCCCCC" stroke-width="1.22455"/>
<path d="M116.596 135.177H848.877" stroke="#CCCCCC" stroke-width="1.22455"/>
<path d="M116.596 86.1948H848.877" stroke="#CCCCCC" stroke-width="1.22455"/>
<path d="M116.596 37.2126H848.877" stroke="#CCCCCC" stroke-width="1.22455"/>
<path d="M116.596 37.2126V233.141" stroke="#CCCCCC" stroke-width="1.22455"/>
<path d="M189.824 37.2126V233.141" stroke="#CCCCCC" stroke-width="1.22455"/>
<path d="M263.052 37.2126V233.141" stroke="#CCCCCC" stroke-width="1.22455"/>
<path d="M336.28 37.2126V233.141" stroke="#CCCCCC" stroke-width="1.22455"/>
<path d="M409.508 37.2126V233.141" stroke="#CCCCCC" stroke-width="1.22455"/>
<path d="M482.736 37.2126V233.141" stroke="#CCCCCC" stroke-width="1.22455"/>
<path d="M555.965 37.2126V233.141" stroke="#CCCCCC" stroke-width="1.22455"/>
<path d="M629.193 37.2126V233.141" stroke="#CCCCCC" stroke-width="1.22455"/>
<path d="M702.421 37.2126V233.141" stroke="#CCCCCC" stroke-width="1.22455"/>
<path d="M775.649 37.2126V233.141" stroke="#CCCCCC" stroke-width="1.22455"/>
<path d="M848.877 37.2126V233.141" stroke="#CCCCCC" stroke-width="1.22455"/>
<path d="M116.596 207.278L189.824 45.4414L263.052 159.276L336.281 173.774L409.509 150.067L482.737 225.108L555.965 96.7746L629.193 164.958L702.421 204.927L775.649 112.645L848.878 84.823" stroke="#3FFF75" stroke-width="1.22455"/>
<path d="M116.596 210.952C118.625 210.952 120.27 209.307 120.27 207.278C120.27 205.249 118.625 203.604 116.596 203.604C114.567 203.604 112.922 205.249 112.922 207.278C112.922 209.307 114.567 210.952 116.596 210.952Z" fill="white" stroke="#3FFF75" stroke-width="1.22455"/>
<path d="M189.824 49.1151C191.853 49.1151 193.498 47.4704 193.498 45.4415C193.498 43.4126 191.853 41.7678 189.824 41.7678C187.795 41.7678 186.15 43.4126 186.15 45.4415C186.15 47.4704 187.795 49.1151 189.824 49.1151Z" fill="white" stroke="#3FFF75" stroke-width="1.22455"/>
<path d="M263.053 162.949C265.081 162.949 266.726 161.305 266.726 159.276C266.726 157.247 265.081 155.602 263.053 155.602C261.024 155.602 259.379 157.247 259.379 159.276C259.379 161.305 261.024 162.949 263.053 162.949Z" fill="white" stroke="#3FFF75" stroke-width="1.22455"/>
<path d="M336.281 177.448C338.309 177.448 339.954 175.803 339.954 173.774C339.954 171.746 338.309 170.101 336.281 170.101C334.252 170.101 332.607 171.746 332.607 173.774C332.607 175.803 334.252 177.448 336.281 177.448Z" fill="white" stroke="#3FFF75" stroke-width="1.22455"/>
<path d="M409.509 153.741C411.538 153.741 413.182 152.096 413.182 150.067C413.182 148.038 411.538 146.393 409.509 146.393C407.48 146.393 405.835 148.038 405.835 150.067C405.835 152.096 407.48 153.741 409.509 153.741Z" fill="white" stroke="#3FFF75" stroke-width="1.22455"/>
<path d="M482.737 228.781C484.766 228.781 486.41 227.136 486.41 225.107C486.41 223.079 484.766 221.434 482.737 221.434C480.708 221.434 479.063 223.079 479.063 225.107C479.063 227.136 480.708 228.781 482.737 228.781Z" fill="white" stroke="#3FFF75" stroke-width="1.22455"/>
<path d="M555.965 100.448C557.994 100.448 559.639 98.8036 559.639 96.7747C559.639 94.7458 557.994 93.1011 555.965 93.1011C553.936 93.1011 552.292 94.7458 552.292 96.7747C552.292 98.8036 553.936 100.448 555.965 100.448Z" fill="white" stroke="#3FFF75" stroke-width="1.22455"/>
<path d="M629.193 168.631C631.222 168.631 632.867 166.986 632.867 164.958C632.867 162.929 631.222 161.284 629.193 161.284C627.164 161.284 625.52 162.929 625.52 164.958C625.52 166.986 627.164 168.631 629.193 168.631Z" fill="white" stroke="#3FFF75" stroke-width="1.22455"/>
<path d="M702.421 208.601C704.45 208.601 706.095 206.956 706.095 204.927C706.095 202.898 704.45 201.253 702.421 201.253C700.392 201.253 698.748 202.898 698.748 204.927C698.748 206.956 700.392 208.601 702.421 208.601Z" fill="white" stroke="#3FFF75" stroke-width="1.22455"/>
<path d="M775.649 116.318C777.678 116.318 779.323 114.674 779.323 112.645C779.323 110.616 777.678 108.971 775.649 108.971C773.62 108.971 771.976 110.616 771.976 112.645C771.976 114.674 773.62 116.318 775.649 116.318Z" fill="white" stroke="#3FFF75" stroke-width="1.22455"/>
<path d="M848.878 88.4967C850.907 88.4967 852.551 86.852 852.551 84.8231C852.551 82.7942 850.907 81.1494 848.878 81.1494C846.849 81.1494 845.204 82.7942 845.204 84.8231C845.204 86.852 846.849 88.4967 848.878 88.4967Z" fill="white" stroke="#3FFF75" stroke-width="1.22455"/>
<path d="M116.596 178.477L189.824 62.8792L263.052 159.276L336.281 50.7317L409.509 71.696L482.737 151.635L555.965 103.436L629.193 125.38L702.421 211.393L775.649 117.935L848.878 96.9707" stroke="#3BF8DB" stroke-width="1.22455"/>
<path d="M116.596 182.151C118.625 182.151 120.27 180.506 120.27 178.477C120.27 176.448 118.625 174.803 116.596 174.803C114.567 174.803 112.922 176.448 112.922 178.477C112.922 180.506 114.567 182.151 116.596 182.151Z" fill="white" stroke="#3BF8DB" stroke-width="1.22455"/>
<path d="M189.824 66.5531C191.853 66.5531 193.498 64.9084 193.498 62.8795C193.498 60.8506 191.853 59.2058 189.824 59.2058C187.795 59.2058 186.15 60.8506 186.15 62.8795C186.15 64.9084 187.795 66.5531 189.824 66.5531Z" fill="white" stroke="#3BF8DB" stroke-width="1.22455"/>
<path d="M263.053 162.95C265.081 162.95 266.726 161.305 266.726 159.276C266.726 157.247 265.081 155.602 263.053 155.602C261.024 155.602 259.379 157.247 259.379 159.276C259.379 161.305 261.024 162.95 263.053 162.95Z" fill="white" stroke="#3BF8DB" stroke-width="1.22455"/>
<path d="M336.281 54.4054C338.309 54.4054 339.954 52.7607 339.954 50.7318C339.954 48.7029 338.309 47.0581 336.281 47.0581C334.252 47.0581 332.607 48.7029 332.607 50.7318C332.607 52.7607 334.252 54.4054 336.281 54.4054Z" fill="white" stroke="#3BF8DB" stroke-width="1.22455"/>
<path d="M409.509 75.3698C411.538 75.3698 413.182 73.725 413.182 71.6961C413.182 69.6672 411.538 68.0225 409.509 68.0225C407.48 68.0225 405.835 69.6672 405.835 71.6961C405.835 73.725 407.48 75.3698 409.509 75.3698Z" fill="white" stroke="#3BF8DB" stroke-width="1.22455"/>
<path d="M482.737 155.308C484.766 155.308 486.41 153.664 486.41 151.635C486.41 149.606 484.766 147.961 482.737 147.961C480.708 147.961 479.063 149.606 479.063 151.635C479.063 153.664 480.708 155.308 482.737 155.308Z" fill="white" stroke="#3BF8DB" stroke-width="1.22455"/>
<path d="M555.965 107.11C557.994 107.11 559.639 105.465 559.639 103.437C559.639 101.408 557.994 99.7629 555.965 99.7629C553.936 99.7629 552.292 101.408 552.292 103.437C552.292 105.465 553.936 107.11 555.965 107.11Z" fill="white" stroke="#3BF8DB" stroke-width="1.22455"/>
<path d="M629.193 129.054C631.222 129.054 632.867 127.409 632.867 125.38C632.867 123.352 631.222 121.707 629.193 121.707C627.164 121.707 625.52 123.352 625.52 125.38C625.52 127.409 627.164 129.054 629.193 129.054Z" fill="white" stroke="#3BF8DB" stroke-width="1.22455"/>
<path d="M702.421 215.067C704.45 215.067 706.095 213.422 706.095 211.393C706.095 209.364 704.45 207.719 702.421 207.719C700.392 207.719 698.748 209.364 698.748 211.393C698.748 213.422 700.392 215.067 702.421 215.067Z" fill="white" stroke="#3BF8DB" stroke-width="1.22455"/>
<path d="M775.649 121.609C777.678 121.609 779.323 119.964 779.323 117.935C779.323 115.906 777.678 114.261 775.649 114.261C773.62 114.261 771.976 115.906 771.976 117.935C771.976 119.964 773.62 121.609 775.649 121.609Z" fill="white" stroke="#3BF8DB" stroke-width="1.22455"/>
<path d="M848.878 100.644C850.907 100.644 852.551 98.9997 852.551 96.9708C852.551 94.9419 850.907 93.2971 848.878 93.2971C846.849 93.2971 845.204 94.9419 845.204 96.9708C845.204 98.9997 846.849 100.644 848.878 100.644Z" fill="white" stroke="#3BF8DB" stroke-width="1.22455"/>
</g>
<defs>
<filter id="filter0_d_454_1605" x="0" y="0" width="935" height="312" filterUnits="userSpaceOnUse" color-interpolation-filters="sRGB">
<feFlood flood-opacity="0" result="BackgroundImageFix"/>
<feColorMatrix in="SourceAlpha" type="matrix" values="0 0 0 0 0 0 0 0 0 0 0 0 0 0 0 0 0 0 127 0" result="hardAlpha"/>
<feMorphology radius="1" operator="erode" in="SourceAlpha" result="effect1_dropShadow_454_1605"/>
<feOffset dx="-1"/>
<feGaussianBlur stdDeviation="3"/>
<feComposite in2="hardAlpha" operator="out"/>
<feColorMatrix type="matrix" values="0 0 0 0 0.247059 0 0 0 0 1 0 0 0 0 0.458824 0 0 0 0.25 0"/>
<feBlend mode="normal" in2="BackgroundImageFix" result="effect1_dropShadow_454_1605"/>
<feBlend mode="normal" in="SourceGraphic" in2="effect1_dropShadow_454_1605" result="shape"/>
</filter>
</defs>
</svg>
