<svg width="25" height="25" viewBox="0 0 25 25" fill="none" xmlns="http://www.w3.org/2000/svg">
<g id="Vector">
<path id="Vector_2" d="M2 4.66667C2 3.95942 2.28095 3.28115 2.78105 2.78105C3.28115 2.28095 3.95942 2 4.66667 2H7.33333C8.04058 2 8.71885 2.28095 9.21895 2.78105C9.71905 3.28115 10 3.95942 10 4.66667V7.33333C10 8.04058 9.71905 8.71885 9.21895 9.21895C8.71885 9.71905 8.04058 10 7.33333 10H4.66667C3.95942 10 3.28115 9.71905 2.78105 9.21895C2.28095 8.71885 2 8.04058 2 7.33333V4.66667ZM15.3333 4.66667C15.3333 3.95942 15.6143 3.28115 16.1144 2.78105C16.6145 2.28095 17.2928 2 18 2H20.6667C21.3739 2 22.0522 2.28095 22.5523 2.78105C23.0524 3.28115 23.3333 3.95942 23.3333 4.66667V7.33333C23.3333 8.04058 23.0524 8.71885 22.5523 9.21895C22.0522 9.71905 21.3739 10 20.6667 10H18C17.2928 10 16.6145 9.71905 16.1144 9.21895C15.6143 8.71885 15.3333 8.04058 15.3333 7.33333V4.66667ZM2 18C2 17.2928 2.28095 16.6145 2.78105 16.1144C3.28115 15.6143 3.95942 15.3333 4.66667 15.3333H7.33333C8.04058 15.3333 8.71885 15.6143 9.21895 16.1144C9.71905 16.6145 10 17.2928 10 18V20.6667C10 21.3739 9.71905 22.0522 9.21895 22.5523C8.71885 23.0524 8.04058 23.3333 7.33333 23.3333H4.66667C3.95942 23.3333 3.28115 23.0524 2.78105 22.5523C2.28095 22.0522 2 21.3739 2 20.6667V18ZM15.3333 18C15.3333 17.2928 15.6143 16.6145 16.1144 16.1144C16.6145 15.6143 17.2928 15.3333 18 15.3333H20.6667C21.3739 15.3333 22.0522 15.6143 22.5523 16.1144C23.0524 16.6145 23.3333 17.2928 23.3333 18V20.6667C23.3333 21.3739 23.0524 22.0522 22.5523 22.5523C22.0522 23.0524 21.3739 23.3333 20.6667 23.3333H18C17.2928 23.3333 16.6145 23.0524 16.1144 22.5523C15.6143 22.0522 15.3333 21.3739 15.3333 20.6667V18Z" stroke="black" stroke-width="3" stroke-linecap="round" stroke-linejoin="round"/>
</g>
</svg>
