<svg width="26" height="26" viewBox="0 0 26 26" fill="none" xmlns="http://www.w3.org/2000/svg">
<path d="M2.3335 5.00004C2.3335 4.2928 2.61445 3.61452 3.11454 3.11442C3.61464 2.61433 4.29292 2.33337 5.00016 2.33337H7.66683C8.37407 2.33337 9.05235 2.61433 9.55245 3.11442C10.0525 3.61452 10.3335 4.2928 10.3335 5.00004V7.66671C10.3335 8.37395 10.0525 9.05223 9.55245 9.55233C9.05235 10.0524 8.37407 10.3334 7.66683 10.3334H5.00016C4.29292 10.3334 3.61464 10.0524 3.11454 9.55233C2.61445 9.05223 2.3335 8.37395 2.3335 7.66671V5.00004ZM15.6668 5.00004C15.6668 4.2928 15.9478 3.61452 16.4479 3.11442C16.948 2.61433 17.6263 2.33337 18.3335 2.33337H21.0002C21.7074 2.33337 22.3857 2.61433 22.8858 3.11442C23.3859 3.61452 23.6668 4.2928 23.6668 5.00004V7.66671C23.6668 8.37395 23.3859 9.05223 22.8858 9.55233C22.3857 10.0524 21.7074 10.3334 21.0002 10.3334H18.3335C17.6263 10.3334 16.948 10.0524 16.4479 9.55233C15.9478 9.05223 15.6668 8.37395 15.6668 7.66671V5.00004ZM2.3335 18.3334C2.3335 17.6261 2.61445 16.9479 3.11454 16.4478C3.61464 15.9477 4.29292 15.6667 5.00016 15.6667H7.66683C8.37407 15.6667 9.05235 15.9477 9.55245 16.4478C10.0525 16.9479 10.3335 17.6261 10.3335 18.3334V21C10.3335 21.7073 10.0525 22.3856 9.55245 22.8857C9.05235 23.3858 8.37407 23.6667 7.66683 23.6667H5.00016C4.29292 23.6667 3.61464 23.3858 3.11454 22.8857C2.61445 22.3856 2.3335 21.7073 2.3335 21V18.3334ZM15.6668 18.3334C15.6668 17.6261 15.9478 16.9479 16.4479 16.4478C16.948 15.9477 17.6263 15.6667 18.3335 15.6667H21.0002C21.7074 15.6667 22.3857 15.9477 22.8858 16.4478C23.3859 16.9479 23.6668 17.6261 23.6668 18.3334V21C23.6668 21.7073 23.3859 22.3856 22.8858 22.8857C22.3857 23.3858 21.7074 23.6667 21.0002 23.6667H18.3335C17.6263 23.6667 16.948 23.3858 16.4479 22.8857C15.9478 22.3856 15.6668 21.7073 15.6668 21V18.3334Z" stroke="#DB8118" stroke-width="3" stroke-linecap="round" stroke-linejoin="round"/>
</svg>
